<svg width="48" height="48" viewBox="0 0 48 48" fill="none" xmlns="http://www.w3.org/2000/svg">
<path d="M6.76001 11C11.6095 7.0007 17.7145 4.84058 24 4.9C30.14 4.9 36.82 7.05 41.24 11.04M18.61 27.2C18.61 23.62 20.44 21.28 24.02 21.28C27.6 21.28 29.39 23.62 29.39 27.2H18.61ZM17.54 31C17.54 31 17.38 36.89 18.61 39.08C19.84 41.27 24 43.9 24 43.9C24 43.9 28.15 41.24 29.39 39.05C30.63 36.86 30.46 31 30.46 31C30.46 31 26.22 29.36 24 29.36C21.78 29.36 17.54 31 17.54 31ZM13.33 16.75C16.4212 14.4596 20.1532 13.197 24 13.14C27.8235 13.2075 31.53 14.4698 34.6 16.75H13.33Z" stroke="#0FA2DB" stroke-width="1.5" stroke-linecap="round" stroke-linejoin="round"/>
<path d="M24 32.39C23.5473 32.3926 23.1139 32.5736 22.7937 32.8938C22.4736 33.2139 22.2926 33.6473 22.29 34.1C22.2889 34.3233 22.3326 34.5445 22.4184 34.7507C22.5043 34.9568 22.6307 35.1436 22.79 35.3L22.3 38.72H25.71L25.2 35.3C25.3593 35.1436 25.4857 34.9568 25.5716 34.7507C25.6574 34.5445 25.7011 34.3233 25.7 34.1C25.7 33.6482 25.5212 33.2148 25.2027 32.8944C24.8842 32.574 24.4518 32.3927 24 32.39V32.39Z" stroke="#0FA2DB" stroke-width="1.5" stroke-linecap="round" stroke-linejoin="round"/>
</svg>
